<svg width="572" height="67" viewBox="0 0 572 67" fill="none" xmlns="http://www.w3.org/2000/svg">
<g style="mix-blend-mode:multiply">
<path d="M40.528 43.552C40.9547 44.9173 41.68 45.984 42.704 46.752C43.728 47.52 44.816 47.904 45.968 47.904C45.968 48.672 45.84 49.4187 45.584 50.144C45.328 50.8693 44.9653 51.488 44.496 52H27.152C26.6827 51.488 26.32 50.8693 26.064 50.144C25.808 49.4187 25.68 48.672 25.68 47.904C28.112 47.904 29.328 46.88 29.328 44.832C29.328 43.9787 29.1787 42.976 28.88 41.824L28.496 40.48H14.16L13.776 41.824C13.392 43.1467 13.2 44.0853 13.2 44.64C13.2 46.816 14.5653 47.904 17.296 47.904C17.296 48.672 17.168 49.4187 16.912 50.144C16.656 50.8693 16.2933 51.488 15.824 52H1.552C1.08267 51.488 0.72 50.8693 0.464 50.144C0.208 49.4187 0.0799999 48.672 0.0799999 47.904C1.27467 47.904 2.36267 47.5627 3.344 46.88C4.32533 46.1547 5.05067 45.1093 5.52 43.744L16.016 12.768C14.3093 12.2133 12.1547 11.936 9.552 11.936C9.552 10.1013 10.064 8.56533 11.088 7.328H28.624L40.528 43.552ZM27.088 35.488L22.544 19.616C22.16 18.336 21.6693 17.248 21.072 16.352L15.568 35.488H27.088ZM58.8465 52.64C56.7558 52.64 54.6652 52.3413 52.5745 51.744C50.5265 51.104 48.8412 50.208 47.5185 49.056C46.1958 47.904 45.5345 46.5387 45.5345 44.96C45.5345 43.4667 45.9612 42.272 46.8145 41.376C47.6678 40.4373 48.7558 39.968 50.0785 39.968C51.2732 39.968 52.2758 40.352 53.0865 41.12C53.9398 41.888 54.3665 42.8907 54.3665 44.128C54.3665 44.6827 54.2812 45.1733 54.1105 45.6C53.9825 45.984 53.7265 46.4107 53.3425 46.88C53.6838 47.2213 54.3238 47.4987 55.2625 47.712C56.2012 47.8827 57.2038 47.968 58.2705 47.968C59.7212 47.968 60.8518 47.712 61.6625 47.2C62.5158 46.6453 62.9425 45.9413 62.9425 45.088C62.9425 43.936 62.4092 42.9547 61.3425 42.144C60.2758 41.2907 58.5692 40.2453 56.2225 39.008C53.8332 37.728 52.0198 36.6827 50.7825 35.872C49.5452 35.0187 48.4358 33.888 47.4545 32.48C46.5158 31.0293 46.0465 29.2587 46.0465 27.168C46.0465 24.2667 47.2412 21.92 49.6305 20.128C52.0198 18.336 55.3265 17.44 59.5505 17.44C63.6892 17.44 66.7612 18.1867 68.7665 19.68C70.8145 21.1307 71.8385 22.88 71.8385 24.928C71.8385 26.208 71.4118 27.2533 70.5585 28.064C69.7478 28.8747 68.7452 29.28 67.5505 29.28C66.4412 29.28 65.4812 28.96 64.6705 28.32C63.9025 27.6373 63.5185 26.7627 63.5185 25.696C63.5185 25.1413 63.6038 24.5867 63.7745 24.032C63.9452 23.4347 64.1798 22.944 64.4785 22.56C63.6252 21.8773 62.3452 21.536 60.6385 21.536C59.2732 21.536 58.2065 21.856 57.4385 22.496C56.6705 23.136 56.2865 23.9467 56.2865 24.928C56.2865 26.2507 56.8198 27.3387 57.8865 28.192C58.9532 29.0453 60.6598 30.0693 63.0065 31.264C65.2252 32.416 66.9745 33.4187 68.2545 34.272C69.5345 35.1253 70.6438 36.256 71.5825 37.664C72.5212 39.072 72.9905 40.8 72.9905 42.848C72.9905 46.176 71.6252 48.6507 68.8945 50.272C66.2065 51.8507 62.8572 52.64 58.8465 52.64ZM89.2215 52.64C87.1308 52.64 85.0402 52.3413 82.9495 51.744C80.9015 51.104 79.2162 50.208 77.8935 49.056C76.5708 47.904 75.9095 46.5387 75.9095 44.96C75.9095 43.4667 76.3362 42.272 77.1895 41.376C78.0428 40.4373 79.1308 39.968 80.4535 39.968C81.6482 39.968 82.6508 40.352 83.4615 41.12C84.3148 41.888 84.7415 42.8907 84.7415 44.128C84.7415 44.6827 84.6562 45.1733 84.4855 45.6C84.3575 45.984 84.1015 46.4107 83.7175 46.88C84.0588 47.2213 84.6988 47.4987 85.6375 47.712C86.5762 47.8827 87.5788 47.968 88.6455 47.968C90.0962 47.968 91.2268 47.712 92.0375 47.2C92.8908 46.6453 93.3175 45.9413 93.3175 45.088C93.3175 43.936 92.7842 42.9547 91.7175 42.144C90.6508 41.2907 88.9442 40.2453 86.5975 39.008C84.2082 37.728 82.3948 36.6827 81.1575 35.872C79.9202 35.0187 78.8108 33.888 77.8295 32.48C76.8908 31.0293 76.4215 29.2587 76.4215 27.168C76.4215 24.2667 77.6162 21.92 80.0055 20.128C82.3948 18.336 85.7015 17.44 89.9255 17.44C94.0642 17.44 97.1362 18.1867 99.1415 19.68C101.19 21.1307 102.214 22.88 102.214 24.928C102.214 26.208 101.787 27.2533 100.934 28.064C100.123 28.8747 99.1202 29.28 97.9255 29.28C96.8162 29.28 95.8562 28.96 95.0455 28.32C94.2775 27.6373 93.8935 26.7627 93.8935 25.696C93.8935 25.1413 93.9788 24.5867 94.1495 24.032C94.3202 23.4347 94.5548 22.944 94.8535 22.56C94.0002 21.8773 92.7202 21.536 91.0135 21.536C89.6482 21.536 88.5815 21.856 87.8135 22.496C87.0455 23.136 86.6615 23.9467 86.6615 24.928C86.6615 26.2507 87.1948 27.3387 88.2615 28.192C89.3282 29.0453 91.0348 30.0693 93.3815 31.264C95.6002 32.416 97.3495 33.4187 98.6295 34.272C99.9095 35.1253 101.019 36.256 101.958 37.664C102.896 39.072 103.366 40.8 103.366 42.848C103.366 46.176 102 48.6507 99.2695 50.272C96.5815 51.8507 93.2322 52.64 89.2215 52.64ZM121.197 6.752C121.197 8.58666 120.621 10.0587 119.469 11.168C118.359 12.2347 116.866 12.768 114.989 12.768C113.154 12.768 111.682 12.2347 110.573 11.168C109.506 10.0587 108.973 8.58666 108.973 6.752C108.973 4.96 109.527 3.50933 110.637 2.4C111.789 1.29066 113.282 0.735996 115.117 0.735996C116.951 0.735996 118.423 1.29066 119.533 2.4C120.642 3.50933 121.197 4.96 121.197 6.752ZM119.981 45.088C119.981 46.3253 120.279 47.2213 120.877 47.776C121.517 48.288 122.477 48.544 123.757 48.544C123.757 49.8667 123.266 51.0187 122.285 52H107.821C106.839 51.0187 106.349 49.8667 106.349 48.544C107.629 48.544 108.546 48.288 109.101 47.776C109.698 47.2213 109.997 46.304 109.997 45.024V26.464C109.997 25.2693 109.698 24.416 109.101 23.904C108.546 23.392 107.437 23.136 105.773 23.136V20.32C106.797 19.68 108.525 19.0187 110.957 18.336C113.431 17.6107 115.522 17.248 117.229 17.248C118.21 17.248 118.914 17.4827 119.341 17.952C119.767 18.3787 119.981 19.1253 119.981 20.192V45.088ZM142.03 44.384C147.534 44.768 151.63 45.7707 154.318 47.392C157.049 48.9707 158.414 51.3173 158.414 54.432C158.414 56.608 157.603 58.592 155.982 60.384C154.361 62.2187 152.206 63.648 149.518 64.672C146.873 65.7387 144.035 66.272 141.006 66.272C135.929 66.272 132.131 65.3547 129.614 63.52C127.097 61.728 125.838 59.3173 125.838 56.288C125.838 54.7093 126.35 53.28 127.374 52C128.441 50.6773 129.955 49.696 131.918 49.056C131.065 48.4587 130.489 47.7547 130.19 46.944C129.934 46.1333 129.806 45.1307 129.806 43.936C129.806 43.168 130.105 42.4 130.702 41.632C131.299 40.8213 132.131 40.224 133.198 39.84C131.193 38.7733 129.614 37.3013 128.462 35.424C127.353 33.5467 126.798 31.52 126.798 29.344C126.798 27.1253 127.331 25.1413 128.398 23.392C129.507 21.6 131.107 20.192 133.198 19.168C135.331 18.1013 137.913 17.568 140.942 17.568H141.006C142.542 17.568 143.865 17.6747 144.974 17.888C148.985 17.888 151.737 17.8453 153.23 17.76C154.766 17.632 156.238 17.4613 157.646 17.248C158.073 17.248 158.393 17.5467 158.606 18.144C158.862 18.6987 158.99 19.296 158.99 19.936C158.99 21.856 158.158 22.816 156.494 22.816C156.11 22.816 154.937 22.432 152.974 21.664C152.633 21.4933 152.121 21.28 151.438 21.024C152.846 22.176 153.934 23.4987 154.702 24.992C155.47 26.4427 155.854 27.8507 155.854 29.216C155.854 33.184 154.489 36.2347 151.758 38.368C149.07 40.4587 145.294 41.504 140.43 41.504C139.235 41.504 137.891 41.3547 136.398 41.056V41.248C136.398 42.272 136.803 43.0187 137.614 43.488C138.425 43.9147 139.897 44.2133 142.03 44.384ZM141.518 21.792C140.153 21.792 139.171 22.496 138.574 23.904C138.019 25.312 137.742 27.36 137.742 30.048C137.742 34.8693 139.001 37.28 141.518 37.28C142.883 37.28 143.865 36.5547 144.462 35.104C145.059 33.6533 145.358 31.4347 145.358 28.448C145.358 26.1013 145.038 24.416 144.398 23.392C143.758 22.3253 142.798 21.792 141.518 21.792ZM143.118 61.024C145.081 61.024 146.531 60.5547 147.47 59.616C148.409 58.6773 148.878 57.504 148.878 56.096C148.878 54.816 148.089 53.856 146.51 53.216C144.974 52.6187 142.542 52.0427 139.214 51.488L136.334 50.912C135.779 51.8507 135.502 53.088 135.502 54.624C135.502 56.5867 136.099 58.144 137.294 59.296C138.489 60.448 140.43 61.024 143.118 61.024ZM196.513 50.272C195.873 50.912 194.721 51.424 193.057 51.808C191.436 52.192 189.878 52.384 188.385 52.384C186.55 52.384 185.185 52.0427 184.289 51.36C183.436 50.6773 183.009 49.5893 183.009 48.096V28.128C183.009 26.464 182.646 25.2693 181.921 24.544C181.196 23.8187 180.236 23.456 179.041 23.456C177.292 23.456 175.82 24.16 174.625 25.568V45.088C174.625 46.3253 174.881 47.2213 175.393 47.776C175.948 48.3307 176.865 48.608 178.145 48.608C178.145 49.888 177.654 51.0187 176.673 52H162.145C161.121 50.976 160.609 49.8453 160.609 48.608C161.889 48.608 162.806 48.3307 163.361 47.776C163.916 47.2213 164.193 46.3253 164.193 45.088V26.4C164.193 25.248 163.873 24.4373 163.233 23.968C162.593 23.456 161.484 23.2 159.905 23.2V20.32C161.27 19.552 163.19 18.848 165.665 18.208C168.182 17.568 170.081 17.248 171.361 17.248C172.342 17.248 173.089 17.568 173.601 18.208C174.156 18.8053 174.476 19.9573 174.561 21.664C175.67 20.2987 177.057 19.232 178.721 18.464C180.385 17.6533 182.262 17.248 184.353 17.248C187.425 17.248 189.686 18.0373 191.137 19.616C192.63 21.152 193.377 23.6907 193.377 27.232V44.704C193.377 46.7947 194.401 48.032 196.449 48.416L196.513 50.272ZM251.382 45.088C251.382 46.9227 252.427 48.032 254.518 48.416V50.272C252.897 51.68 250.273 52.384 246.646 52.384C244.854 52.384 243.446 52.1493 242.422 51.68C241.398 51.168 240.886 50.2933 240.886 49.056V27.744C240.886 26.3787 240.502 25.3333 239.734 24.608C239.009 23.84 238.027 23.456 236.79 23.456C235.254 23.456 233.931 23.968 232.822 24.992C232.865 25.2053 232.886 25.5253 232.886 25.952V45.088C232.886 46.3253 233.142 47.2213 233.654 47.776C234.166 48.288 234.977 48.544 236.086 48.544C236.086 49.824 235.574 50.976 234.55 52H220.918C219.937 50.9333 219.446 49.7813 219.446 48.544C220.513 48.544 221.281 48.288 221.75 47.776C222.219 47.2213 222.454 46.3253 222.454 45.088V27.744C222.454 26.4213 222.07 25.376 221.302 24.608C220.534 23.84 219.574 23.456 218.422 23.456C217.569 23.456 216.715 23.6693 215.862 24.096C215.009 24.48 214.305 25.0133 213.75 25.696V45.088C213.75 46.3253 213.963 47.2213 214.39 47.776C214.859 48.288 215.627 48.544 216.694 48.544C216.694 49.8667 216.182 51.0187 215.158 52H201.27C200.246 50.976 199.734 49.824 199.734 48.544C201.014 48.544 201.931 48.288 202.486 47.776C203.041 47.2213 203.318 46.3253 203.318 45.088V26.336C203.318 25.184 202.998 24.3733 202.358 23.904C201.718 23.392 200.609 23.136 199.03 23.136V20.32C200.395 19.5093 202.315 18.784 204.79 18.144C207.307 17.504 209.206 17.184 210.486 17.184C211.425 17.184 212.15 17.4827 212.662 18.08C213.217 18.6347 213.579 19.7013 213.75 21.28C214.859 20 216.267 18.9973 217.974 18.272C219.681 17.5467 221.579 17.184 223.67 17.184C227.937 17.184 230.71 18.6133 231.99 21.472C233.099 20.1067 234.529 19.0613 236.278 18.336C238.07 17.568 240.054 17.184 242.23 17.184C245.259 17.184 247.542 17.9307 249.078 19.424C250.614 20.9173 251.382 23.0933 251.382 25.952V45.088ZM276.23 45.472C278.918 45.472 281.414 44.6187 283.718 42.912C284.059 43.2533 284.358 43.7653 284.614 44.448C284.87 45.1307 284.998 45.728 284.998 46.24C284.998 47.008 284.486 47.904 283.462 48.928C282.438 49.9093 281.009 50.7627 279.174 51.488C277.382 52.2133 275.355 52.576 273.094 52.576C269.937 52.576 267.163 51.8933 264.774 50.528C262.427 49.1627 260.614 47.1787 259.334 44.576C258.054 41.9733 257.414 38.9013 257.414 35.36C257.414 31.7333 258.097 28.5547 259.462 25.824C260.87 23.0933 262.79 21.0027 265.222 19.552C267.654 18.0587 270.406 17.312 273.478 17.312C277.361 17.312 280.454 18.4427 282.758 20.704C285.062 22.9653 286.214 26.1013 286.214 30.112C286.214 31.9893 285.915 33.4827 285.318 34.592C284.721 35.6587 283.654 36.192 282.118 36.192H268.294C268.55 42.3787 271.195 45.472 276.23 45.472ZM273.094 21.728C271.771 21.728 270.662 22.4747 269.766 23.968C268.87 25.4187 268.379 27.872 268.294 31.328H274.758C275.441 31.328 275.889 31.0933 276.102 30.624C276.315 30.1547 276.422 29.4293 276.422 28.448C276.422 25.9307 276.123 24.1813 275.526 23.2C274.929 22.2187 274.118 21.728 273.094 21.728ZM325.763 50.272C325.123 50.912 323.971 51.424 322.307 51.808C320.686 52.192 319.128 52.384 317.635 52.384C315.8 52.384 314.435 52.0427 313.539 51.36C312.686 50.6773 312.259 49.5893 312.259 48.096V28.128C312.259 26.464 311.896 25.2693 311.171 24.544C310.446 23.8187 309.486 23.456 308.291 23.456C306.542 23.456 305.07 24.16 303.875 25.568V45.088C303.875 46.3253 304.131 47.2213 304.643 47.776C305.198 48.3307 306.115 48.608 307.395 48.608C307.395 49.888 306.904 51.0187 305.923 52H291.395C290.371 50.976 289.859 49.8453 289.859 48.608C291.139 48.608 292.056 48.3307 292.611 47.776C293.166 47.2213 293.443 46.3253 293.443 45.088V26.4C293.443 25.248 293.123 24.4373 292.483 23.968C291.843 23.456 290.734 23.2 289.155 23.2V20.32C290.52 19.552 292.44 18.848 294.915 18.208C297.432 17.568 299.331 17.248 300.611 17.248C301.592 17.248 302.339 17.568 302.851 18.208C303.406 18.8053 303.726 19.9573 303.811 21.664C304.92 20.2987 306.307 19.232 307.971 18.464C309.635 17.6533 311.512 17.248 313.603 17.248C316.675 17.248 318.936 18.0373 320.387 19.616C321.88 21.152 322.627 23.6907 322.627 27.232V44.704C322.627 46.7947 323.651 48.032 325.699 48.416L325.763 50.272ZM341.784 23.776V41.824C341.784 43.104 342.04 44 342.552 44.512C343.064 44.9813 343.789 45.216 344.728 45.216C345.539 45.216 346.392 45.0027 347.288 44.576C348.184 44.1493 348.888 43.616 349.4 42.976C349.827 43.3173 350.125 43.8293 350.296 44.512C350.509 45.1947 350.616 45.8133 350.616 46.368C350.616 47.3493 350.275 48.3093 349.592 49.248C348.909 50.1867 347.885 50.9547 346.52 51.552C345.155 52.1493 343.512 52.448 341.592 52.448C338.605 52.448 336.195 51.5947 334.36 49.888C332.568 48.1813 331.672 45.344 331.672 41.376V23.776H327.64V19.872C328.749 19.7013 329.816 18.9973 330.84 17.76C331.907 16.48 332.803 14.9013 333.528 13.024C334.296 11.104 334.787 9.20533 335 7.328C335.768 7.2 336.472 7.136 337.112 7.136C338.648 7.136 339.779 7.584 340.504 8.48C341.272 9.33333 341.656 10.2933 341.656 11.36V18.08H349.08C349.08 19.36 349.016 20.4693 348.888 21.408C348.76 22.304 348.483 23.0933 348.056 23.776H341.784ZM418.609 7.328C419.078 7.84 419.441 8.45866 419.697 9.184C419.953 9.90933 420.081 10.6347 420.081 11.36C418.63 11.36 417.542 11.616 416.817 12.128C416.134 12.64 415.793 13.472 415.793 14.624V44.704C415.793 45.8987 416.113 46.7307 416.753 47.2C417.435 47.6693 418.545 47.904 420.081 47.904C420.081 48.672 419.953 49.4187 419.697 50.144C419.441 50.8693 419.078 51.488 418.609 52H402.737C402.31 51.488 401.969 50.8693 401.713 50.144C401.457 49.4187 401.329 48.672 401.329 47.904C402.822 47.904 403.931 47.6693 404.657 47.2C405.382 46.688 405.745 45.856 405.745 44.704V18.208L394.865 45.664C394.31 46.9867 393.542 47.904 392.561 48.416C391.579 48.8853 390.299 49.12 388.721 49.12L376.049 18.208V44.704C376.049 45.856 376.454 46.688 377.265 47.2C378.118 47.6693 379.398 47.904 381.105 47.904C381.105 48.672 380.977 49.4187 380.721 50.144C380.465 50.8693 380.123 51.488 379.697 52H366.385C365.958 51.488 365.617 50.8693 365.361 50.144C365.105 49.4187 364.977 48.672 364.977 47.904C366.555 47.904 367.707 47.6693 368.433 47.2C369.158 46.688 369.521 45.856 369.521 44.704V14.624C369.521 13.472 369.137 12.64 368.369 12.128C367.601 11.616 366.47 11.36 364.977 11.36C364.977 10.6347 365.105 9.90933 365.361 9.184C365.617 8.45866 365.979 7.84 366.449 7.328H376.497C378.502 7.328 380.102 7.62667 381.297 8.224C382.491 8.77867 383.451 9.90933 384.177 11.616L390.961 28.32L393.521 36.256L395.953 28.32L404.017 7.328H418.609ZM423.158 42.976C423.158 40.1173 424.097 37.856 425.974 36.192C427.851 34.528 430.625 33.696 434.294 33.696C435.574 33.696 436.875 33.824 438.198 34.08C439.563 34.336 440.673 34.6773 441.526 35.104V26.592C441.526 24.8853 441.099 23.6693 440.246 22.944C439.393 22.176 438.241 21.792 436.79 21.792C435.382 21.792 434.23 22.1333 433.334 22.816C434.145 23.072 434.742 23.52 435.126 24.16C435.553 24.7573 435.766 25.44 435.766 26.208C435.766 27.5733 435.275 28.6827 434.294 29.536C433.313 30.3893 432.075 30.816 430.582 30.816C428.961 30.816 427.659 30.3467 426.678 29.408C425.697 28.4693 425.206 27.2533 425.206 25.76C425.206 24.2667 425.718 22.8587 426.742 21.536C427.766 20.2133 429.323 19.1467 431.414 18.336C433.547 17.5253 436.171 17.12 439.286 17.12C443.51 17.12 446.71 17.9947 448.886 19.744C451.062 21.4507 452.15 23.968 452.15 27.296V44.256C452.15 46.304 453.131 47.5413 455.094 47.968V50.016C454.539 50.784 453.622 51.3813 452.342 51.808C451.062 52.2347 449.761 52.448 448.438 52.448C445.537 52.448 443.489 51.4453 442.294 49.44C441.313 50.2933 440.118 51.0187 438.71 51.616C437.302 52.1707 435.702 52.448 433.91 52.448C430.71 52.448 428.107 51.5733 426.102 49.824C424.139 48.032 423.158 45.7493 423.158 42.976ZM441.526 40.032C441.057 39.7333 440.481 39.4773 439.798 39.264C439.158 39.0507 438.539 38.944 437.942 38.944C436.747 38.944 435.766 39.328 434.998 40.096C434.23 40.8213 433.846 41.888 433.846 43.296C433.846 44.448 434.23 45.408 434.998 46.176C435.766 46.9013 436.79 47.264 438.07 47.264C438.71 47.264 439.329 47.1787 439.926 47.008C440.566 46.7947 441.099 46.5387 441.526 46.24V40.032ZM470.909 52.64C468.818 52.64 466.728 52.3413 464.637 51.744C462.589 51.104 460.904 50.208 459.581 49.056C458.258 47.904 457.597 46.5387 457.597 44.96C457.597 43.4667 458.024 42.272 458.877 41.376C459.73 40.4373 460.818 39.968 462.141 39.968C463.336 39.968 464.338 40.352 465.149 41.12C466.002 41.888 466.429 42.8907 466.429 44.128C466.429 44.6827 466.344 45.1733 466.173 45.6C466.045 45.984 465.789 46.4107 465.405 46.88C465.746 47.2213 466.386 47.4987 467.325 47.712C468.264 47.8827 469.266 47.968 470.333 47.968C471.784 47.968 472.914 47.712 473.725 47.2C474.578 46.6453 475.005 45.9413 475.005 45.088C475.005 43.936 474.472 42.9547 473.405 42.144C472.338 41.2907 470.632 40.2453 468.285 39.008C465.896 37.728 464.082 36.6827 462.845 35.872C461.608 35.0187 460.498 33.888 459.517 32.48C458.578 31.0293 458.109 29.2587 458.109 27.168C458.109 24.2667 459.304 21.92 461.693 20.128C464.082 18.336 467.389 17.44 471.613 17.44C475.752 17.44 478.824 18.1867 480.829 19.68C482.877 21.1307 483.901 22.88 483.901 24.928C483.901 26.208 483.474 27.2533 482.621 28.064C481.81 28.8747 480.808 29.28 479.613 29.28C478.504 29.28 477.544 28.96 476.733 28.32C475.965 27.6373 475.581 26.7627 475.581 25.696C475.581 25.1413 475.666 24.5867 475.837 24.032C476.008 23.4347 476.242 22.944 476.541 22.56C475.688 21.8773 474.408 21.536 472.701 21.536C471.336 21.536 470.269 21.856 469.501 22.496C468.733 23.136 468.349 23.9467 468.349 24.928C468.349 26.2507 468.882 27.3387 469.949 28.192C471.016 29.0453 472.722 30.0693 475.069 31.264C477.288 32.416 479.037 33.4187 480.317 34.272C481.597 35.1253 482.706 36.256 483.645 37.664C484.584 39.072 485.053 40.8 485.053 42.848C485.053 46.176 483.688 48.6507 480.957 50.272C478.269 51.8507 474.92 52.64 470.909 52.64ZM501.284 23.776V41.824C501.284 43.104 501.54 44 502.052 44.512C502.564 44.9813 503.289 45.216 504.228 45.216C505.039 45.216 505.892 45.0027 506.788 44.576C507.684 44.1493 508.388 43.616 508.9 42.976C509.327 43.3173 509.625 43.8293 509.796 44.512C510.009 45.1947 510.116 45.8133 510.116 46.368C510.116 47.3493 509.775 48.3093 509.092 49.248C508.409 50.1867 507.385 50.9547 506.02 51.552C504.655 52.1493 503.012 52.448 501.092 52.448C498.105 52.448 495.695 51.5947 493.86 49.888C492.068 48.1813 491.172 45.344 491.172 41.376V23.776H487.14V19.872C488.249 19.7013 489.316 18.9973 490.34 17.76C491.407 16.48 492.303 14.9013 493.028 13.024C493.796 11.104 494.287 9.20533 494.5 7.328C495.268 7.2 495.972 7.136 496.612 7.136C498.148 7.136 499.279 7.584 500.004 8.48C500.772 9.33333 501.156 10.2933 501.156 11.36V18.08H508.58C508.58 19.36 508.516 20.4693 508.388 21.408C508.26 22.304 507.983 23.0933 507.556 23.776H501.284ZM531.105 45.472C533.793 45.472 536.289 44.6187 538.593 42.912C538.934 43.2533 539.233 43.7653 539.489 44.448C539.745 45.1307 539.873 45.728 539.873 46.24C539.873 47.008 539.361 47.904 538.337 48.928C537.313 49.9093 535.884 50.7627 534.049 51.488C532.257 52.2133 530.23 52.576 527.969 52.576C524.812 52.576 522.038 51.8933 519.649 50.528C517.302 49.1627 515.489 47.1787 514.209 44.576C512.929 41.9733 512.289 38.9013 512.289 35.36C512.289 31.7333 512.972 28.5547 514.337 25.824C515.745 23.0933 517.665 21.0027 520.097 19.552C522.529 18.0587 525.281 17.312 528.353 17.312C532.236 17.312 535.329 18.4427 537.633 20.704C539.937 22.9653 541.089 26.1013 541.089 30.112C541.089 31.9893 540.79 33.4827 540.193 34.592C539.596 35.6587 538.529 36.192 536.993 36.192H523.169C523.425 42.3787 526.07 45.472 531.105 45.472ZM527.969 21.728C526.646 21.728 525.537 22.4747 524.641 23.968C523.745 25.4187 523.254 27.872 523.169 31.328H529.633C530.316 31.328 530.764 31.0933 530.977 30.624C531.19 30.1547 531.297 29.4293 531.297 28.448C531.297 25.9307 530.998 24.1813 530.401 23.2C529.804 22.2187 528.993 21.728 527.969 21.728ZM566.302 17.248C568.222 17.248 569.63 17.7387 570.526 18.72C571.422 19.7013 571.87 21.0453 571.87 22.752C571.87 24.5867 571.379 26.08 570.398 27.232C569.459 28.384 568.179 28.96 566.558 28.96C565.15 28.96 563.998 28.5547 563.102 27.744C562.249 26.9333 561.822 25.9733 561.822 24.864C561.822 24.1813 561.886 23.648 562.014 23.264C560.478 23.648 559.177 24.3093 558.11 25.248V44.448C558.11 45.5147 558.259 46.3253 558.558 46.88C558.857 47.4347 559.433 47.8613 560.286 48.16C561.182 48.416 562.505 48.544 564.254 48.544C564.254 49.312 564.169 49.9733 563.998 50.528C563.827 51.04 563.507 51.5307 563.038 52H545.95C544.969 51.0187 544.478 49.8667 544.478 48.544C545.715 48.544 546.59 48.288 547.102 47.776C547.657 47.2213 547.934 46.304 547.934 45.024V26.528C547.934 25.376 547.614 24.5653 546.974 24.096C546.377 23.6267 545.289 23.392 543.71 23.392V20.512C545.118 19.7013 546.974 18.9973 549.278 18.4C551.625 17.76 553.438 17.44 554.718 17.44C555.742 17.44 556.467 17.8027 556.894 18.528C557.321 19.2533 557.534 20.704 557.534 22.88C558.302 21.4293 559.518 20.128 561.182 18.976C562.846 17.824 564.553 17.248 566.302 17.248Z" fill="white"/>
</g>
</svg>
